# Blender3D v249 OBJ File: GunTruck90.blend
# www.blender3d.org
mtllib ./GunTruck/Body_Glass.mtl
o Body_Glass
v 1.954486 6.470262 7.634897
v -1.954486 6.470262 7.634897
v -3.093447 5.372376 9.793097
v 3.093447 5.372376 9.793097
v -3.175370 5.375546 9.710411
v -2.049203 6.472835 7.561696
v -2.067085 6.460352 6.102084
v -2.980101 5.391189 6.102084
v 2.019039 6.493889 7.553350
v 3.206598 5.350688 9.798290
v 3.027189 5.351497 6.045191
v 2.018921 6.493971 6.045190
vt 0.236577 0.600334
vt 0.118188 0.469095
vt 0.316111 0.469188
vt 0.316111 0.600343
vt 0.877178 0.471949
vt 0.763863 0.597917
vt 0.686889 0.473745
vt 0.686889 0.596484
vt 0.765701 0.232276
vt 0.234299 0.232276
vt 0.079464 0.118462
vt 0.920536 0.118462
vn 0.726258 0.686553 -0.034569
vn 0.749772 0.661696 -0.000023
vn -0.732426 0.679858 -0.036689
vn -0.760448 0.649388 0.003763
vn 0.000000 0.891302 0.453409
usemtl Body_Glass_glass.tga
s off
f 9/1/1 10/2/1 11/3/1
f 9/1/2 11/3/2 12/4/2
f 5/5/3 6/6/3 8/7/3
f 6/6/4 7/8/4 8/7/4
f 1/9/5 2/10/5 3/11/5
f 1/9/5 3/11/5 4/12/5
