# Blender3D v249 OBJ File: GunTruck90.blend
# www.blender3d.org
mtllib ./GunTruck/GunFlame1.mtl
o GunFlame1
v -0.377932 -0.234575 8.756301
v -0.449249 0.000000 8.756301
v 0.000000 0.000000 8.602908
v -0.681010 -0.422690 9.186098
v -0.809518 0.000000 9.186098
v -0.849205 -0.527086 9.807174
v -1.009452 0.000000 9.807174
v -0.849205 -0.527086 10.496516
v -1.009452 0.000000 10.496516
v -0.681010 -0.422690 11.117592
v -0.809518 0.000000 11.117592
v -0.377932 -0.234574 11.547390
v -0.449249 0.000001 11.547390
v 0.000000 0.000001 11.700783
v -0.186625 -0.394675 8.756301
v -0.336286 -0.711179 9.186098
v -0.419342 -0.886826 9.807174
v -0.419342 -0.886826 10.496516
v -0.336286 -0.711179 11.117592
v -0.186625 -0.394674 11.547390
v 0.063935 -0.429467 8.756301
v 0.115206 -0.773874 9.186098
v 0.143660 -0.965005 9.807174
v 0.143660 -0.965005 10.496516
v 0.115206 -0.773874 11.117592
v 0.063935 -0.429466 11.547390
v 0.294195 -0.327907 8.756301
v 0.530121 -0.590869 9.186098
v 0.661051 -0.736801 9.807174
v 0.661051 -0.736801 10.496516
v 0.530121 -0.590869 11.117592
v 0.294195 -0.327906 11.547390
v 0.431051 -0.122239 8.756301
v 0.776727 -0.220267 9.186098
v 0.968562 -0.274669 9.807174
v 0.968562 -0.274669 10.496516
v 0.776727 -0.220267 11.117592
v 0.431051 -0.122238 11.547390
v 0.431051 0.122239 8.756301
v 0.776727 0.220267 9.186098
v 0.968562 0.274669 9.807174
v 0.968562 0.274669 10.496516
v 0.776727 0.220267 11.117592
v 0.431051 0.122240 11.547390
v 0.294195 0.327907 8.756301
v 0.530121 0.590869 9.186098
v 0.661051 0.736801 9.807174
v 0.661051 0.736802 10.496516
v 0.530121 0.590869 11.117592
v 0.294195 0.327908 11.547390
v 0.063935 0.429467 8.756301
v 0.115206 0.773874 9.186098
v 0.143660 0.965005 9.807174
v 0.143660 0.965005 10.496516
v 0.115206 0.773874 11.117592
v 0.063935 0.429467 11.547390
v -0.186625 0.394675 8.756301
v -0.336286 0.711179 9.186098
v -0.419342 0.886826 9.807174
v -0.419342 0.886826 10.496516
v -0.336286 0.711179 11.117592
v -0.186625 0.394675 11.547390
v -0.377932 0.234575 8.756301
v -0.681010 0.422690 9.186098
v -0.849205 0.527086 9.807174
v -0.849205 0.527086 10.496516
v -0.681010 0.422690 11.117592
v -0.377932 0.234576 11.547390
vn -0.321578 -0.097768 -0.941822
vn -0.321578 -0.097768 0.941822
vn -0.219045 -0.261741 -0.939953
vn -0.219045 -0.261741 0.939953
vn -0.047523 -0.342246 -0.938408
vn -0.047523 -0.342246 0.938408
vn 0.138809 -0.314712 -0.938983
vn 0.138809 -0.314712 0.938983
vn 0.281707 -0.187454 -0.941011
vn 0.281707 -0.187454 0.941011
vn 0.335262 0.000000 -0.942125
vn 0.335262 0.000000 0.942125
vn 0.281707 0.187454 -0.941011
vn 0.281707 0.187454 0.941011
vn 0.138809 0.314712 -0.938983
vn 0.138809 0.314712 0.938983
vn -0.047523 0.342246 -0.938408
vn -0.047523 0.342246 0.938408
vn -0.219045 0.261741 -0.939953
vn -0.219045 0.261741 0.939953
vn -0.321578 0.097768 -0.941822
vn -0.321578 0.097768 0.941822
vn -0.746381 0.226918 0.625638
vn -0.746380 0.226919 0.625639
vn -0.914373 0.277992 0.294351
vn -0.956760 0.290878 -0.000000
vn -0.914373 0.277992 -0.294351
vn -0.746380 0.226919 -0.625640
vn -0.746381 0.226918 -0.625639
vn -0.504033 0.602284 0.619035
vn -0.504036 0.602283 0.619034
vn -0.614258 0.733993 0.289725
vn -0.614257 0.733994 0.289726
vn -0.641784 0.766885 -0.000000
vn -0.614257 0.733994 -0.289726
vn -0.614258 0.733993 -0.289725
vn -0.504035 0.602283 -0.619035
vn -0.504033 0.602284 -0.619036
vn -0.108594 0.782032 0.613704
vn -0.108591 0.782032 0.613706
vn -0.131794 0.949110 0.286043
vn -0.131795 0.949110 0.286043
vn -0.137541 0.990496 -0.000000
vn -0.131795 0.949110 -0.286043
vn -0.131794 0.949110 -0.286043
vn -0.108590 0.782031 -0.613707
vn -0.108594 0.782032 -0.613705
vn 0.318002 0.720984 0.615676
vn 0.386531 0.876354 0.287399
vn 0.386530 0.876354 0.287399
vn 0.403556 0.914955 -0.000000
vn 0.386530 0.876354 -0.287399
vn 0.386531 0.876354 -0.287399
vn 0.318002 0.720983 -0.615677
vn 0.318001 0.720984 -0.615677
vn 0.651386 0.433445 0.622753
vn 0.651385 0.433446 0.622754
vn 0.796165 0.529783 0.292321
vn 0.796164 0.529783 0.292322
vn 0.832530 0.553980 -0.000000
vn 0.796164 0.529783 -0.292322
vn 0.796165 0.529783 -0.292321
vn 0.651384 0.433445 -0.622755
vn 0.651385 0.433445 -0.622754
vn 0.779241 0.000000 0.626724
vn 0.955461 0.000000 0.295118
vn 1.000000 0.000000 0.000000
vn 0.955461 0.000000 -0.295118
vn 0.779240 0.000000 -0.626725
vn 0.651386 -0.433445 0.622753
vn 0.651385 -0.433446 0.622754
vn 0.796165 -0.529783 0.292321
vn 0.796164 -0.529783 0.292322
vn 0.832530 -0.553980 0.000000
vn 0.796164 -0.529783 -0.292322
vn 0.796165 -0.529783 -0.292321
vn 0.651384 -0.433445 -0.622755
vn 0.651385 -0.433445 -0.622754
vn 0.318002 -0.720984 0.615676
vn 0.386531 -0.876354 0.287399
vn 0.386530 -0.876354 0.287399
vn 0.403556 -0.914955 0.000000
vn 0.386530 -0.876354 -0.287399
vn 0.386531 -0.876354 -0.287399
vn 0.318002 -0.720984 -0.615677
vn 0.318001 -0.720984 -0.615677
vn -0.108594 -0.782032 0.613704
vn -0.108591 -0.782031 0.613706
vn -0.131794 -0.949110 0.286043
vn -0.131795 -0.949110 0.286043
vn -0.137541 -0.990496 0.000000
vn -0.131795 -0.949110 -0.286043
vn -0.131794 -0.949110 -0.286043
vn -0.108590 -0.782031 -0.613707
vn -0.108594 -0.782032 -0.613705
vn -0.504033 -0.602284 0.619035
vn -0.504036 -0.602283 0.619034
vn -0.614258 -0.733993 0.289725
vn -0.614257 -0.733994 0.289726
vn -0.641784 -0.766885 0.000000
vn -0.614257 -0.733994 -0.289726
vn -0.614258 -0.733994 -0.289725
vn -0.504035 -0.602283 -0.619035
vn -0.504033 -0.602284 -0.619036
vn -0.746381 -0.226918 0.625638
vn -0.746380 -0.226919 0.625639
vn -0.914373 -0.277992 0.294351
vn -0.956760 -0.290878 0.000000
vn -0.914373 -0.277992 -0.294351
vn -0.746380 -0.226919 -0.625640
vn -0.746381 -0.226918 -0.625639
usemtl gunflame1
s off
f 1//1 2//1 3//1
f 13//2 12//2 14//2
f 15//3 1//3 3//3
f 12//4 20//4 14//4
f 21//5 15//5 3//5
f 20//6 26//6 14//6
f 27//7 21//7 3//7
f 26//8 32//8 14//8
f 33//9 27//9 3//9
f 32//10 38//10 14//10
f 39//11 33//11 3//11
f 38//12 44//12 14//12
f 45//13 39//13 3//13
f 44//14 50//14 14//14
f 51//15 45//15 3//15
f 50//16 56//16 14//16
f 57//17 51//17 3//17
f 56//18 62//18 14//18
f 63//19 57//19 3//19
f 62//20 68//20 14//20
f 2//21 63//21 3//21
f 68//22 13//22 14//22
f 67//23 11//23 13//23
f 67//24 13//24 68//24
f 66//25 9//25 11//25
f 66//25 11//25 67//25
f 65//26 7//26 9//26
f 65//26 9//26 66//26
f 64//27 5//27 65//27
f 5//27 7//27 65//27
f 63//28 2//28 64//28
f 2//29 5//29 64//29
f 61//30 67//30 68//30
f 61//31 68//31 62//31
f 60//32 66//32 67//32
f 60//33 67//33 61//33
f 59//34 65//34 66//34
f 59//34 66//34 60//34
f 58//35 64//35 59//35
f 64//36 65//36 59//36
f 57//37 63//37 58//37
f 63//38 64//38 58//38
f 55//39 61//39 62//39
f 55//40 62//40 56//40
f 54//41 60//41 61//41
f 54//42 61//42 55//42
f 53//43 59//43 60//43
f 53//43 60//43 54//43
f 52//44 58//44 53//44
f 58//45 59//45 53//45
f 51//46 57//46 52//46
f 57//47 58//47 52//47
f 49//48 55//48 50//48
f 55//48 56//48 50//48
f 48//49 54//49 49//49
f 54//50 55//50 49//50
f 47//51 53//51 54//51
f 47//51 54//51 48//51
f 46//52 52//52 53//52
f 46//53 53//53 47//53
f 45//54 51//54 52//54
f 45//55 52//55 46//55
f 43//56 49//56 44//56
f 49//57 50//57 44//57
f 42//58 48//58 43//58
f 48//59 49//59 43//59
f 41//60 47//60 48//60
f 41//60 48//60 42//60
f 40//61 46//61 47//61
f 40//62 47//62 41//62
f 39//63 45//63 46//63
f 39//64 46//64 40//64
f 37//65 43//65 44//65
f 37//65 44//65 38//65
f 36//66 42//66 43//66
f 36//66 43//66 37//66
f 35//67 41//67 42//67
f 35//67 42//67 36//67
f 34//68 40//68 41//68
f 34//68 41//68 35//68
f 33//69 39//69 40//69
f 33//69 40//69 34//69
f 31//70 37//70 38//70
f 31//71 38//71 32//71
f 30//72 36//72 37//72
f 30//73 37//73 31//73
f 29//74 35//74 36//74
f 29//74 36//74 30//74
f 28//75 34//75 29//75
f 34//76 35//76 29//76
f 27//77 33//77 28//77
f 33//78 34//78 28//78
f 25//79 31//79 32//79
f 25//79 32//79 26//79
f 24//80 30//80 31//80
f 24//81 31//81 25//81
f 23//82 29//82 30//82
f 23//82 30//82 24//82
f 22//83 28//83 23//83
f 28//84 29//84 23//84
f 21//85 27//85 22//85
f 27//86 28//86 22//86
f 19//87 25//87 20//87
f 25//88 26//88 20//88
f 18//89 24//89 19//89
f 24//90 25//90 19//90
f 17//91 23//91 24//91
f 17//91 24//91 18//91
f 16//92 22//92 23//92
f 16//93 23//93 17//93
f 15//94 21//94 22//94
f 15//95 22//95 16//95
f 10//96 19//96 12//96
f 19//97 20//97 12//97
f 8//98 18//98 10//98
f 18//99 19//99 10//99
f 6//100 17//100 18//100
f 6//100 18//100 8//100
f 4//101 16//101 17//101
f 4//102 17//102 6//102
f 1//103 15//103 16//103
f 1//104 16//104 4//104
f 11//105 10//105 13//105
f 10//106 12//106 13//106
f 9//107 8//107 11//107
f 8//107 10//107 11//107
f 7//108 6//108 8//108
f 7//108 8//108 9//108
f 5//109 4//109 6//109
f 5//109 6//109 7//109
f 2//110 1//110 4//110
f 2//111 4//111 5//111
