# Blender3D v249 OBJ File: GunTruck90.blend
# www.blender3d.org
mtllib ./GunTruck/GunFlame2.mtl
o GunFlame2
v -0.524166 -0.325340 8.913295
v -0.623077 0.000000 8.913295
v 0.000000 0.000000 8.671756
v -0.944514 -0.586243 9.590071
v -1.122746 0.000000 9.590071
v -1.177790 -0.731034 10.568041
v -1.400041 0.000000 10.568041
v -1.177790 -0.731033 11.653506
v -1.400041 0.000001 11.653506
v -0.944514 -0.586242 12.631477
v -1.122746 0.000001 12.631477
v -0.524166 -0.325339 13.308253
v -0.623077 0.000001 13.308253
v 0.000000 0.000001 13.549791
v -0.258835 -0.547388 8.913295
v -0.466405 -0.986359 9.590071
v -0.581598 -1.229969 10.568041
v -0.581598 -1.229969 11.653506
v -0.466405 -0.986358 12.631477
v -0.258835 -0.547387 13.308253
v 0.088673 -0.595643 8.913295
v 0.159784 -1.073312 9.590071
v 0.199247 -1.338398 10.568041
v 0.199247 -1.338398 11.653506
v 0.159784 -1.073311 12.631477
v 0.088673 -0.595642 13.308253
v 0.408029 -0.454787 8.913295
v 0.735242 -0.819497 9.590071
v 0.916832 -1.021896 10.568041
v 0.916832 -1.021896 11.653506
v 0.735242 -0.819496 12.631477
v 0.408029 -0.454786 13.308253
v 0.597838 -0.169537 8.913295
v 1.077268 -0.305496 9.590071
v 1.343330 -0.380948 10.568041
v 1.343330 -0.380948 11.653506
v 1.077268 -0.305495 12.631477
v 0.597838 -0.169536 13.308253
v 0.597838 0.169537 8.913295
v 1.077268 0.305496 9.590071
v 1.343330 0.380948 10.568041
v 1.343330 0.380949 11.653506
v 1.077268 0.305497 12.631477
v 0.597838 0.169538 13.308253
v 0.408029 0.454787 8.913295
v 0.735242 0.819497 9.590071
v 0.916832 1.021896 10.568041
v 0.916832 1.021896 11.653506
v 0.735242 0.819498 12.631477
v 0.408029 0.454788 13.308253
v 0.088673 0.595643 8.913295
v 0.159784 1.073313 9.590071
v 0.199247 1.338398 10.568041
v 0.199247 1.338398 11.653506
v 0.159784 1.073313 12.631477
v 0.088673 0.595644 13.308253
v -0.258835 0.547388 8.913295
v -0.466405 0.986359 9.590071
v -0.581598 1.229970 10.568041
v -0.581598 1.229970 11.653506
v -0.466405 0.986360 12.631477
v -0.258835 0.547389 13.308253
v -0.524166 0.325340 8.913295
v -0.944514 0.586243 9.590071
v -1.177790 0.731034 10.568041
v -1.177790 0.731035 11.653506
v -0.944514 0.586244 12.631477
v -0.524166 0.325341 13.308253
vn -0.359284 -0.109231 -0.926814
vn -0.359283 -0.109230 0.926814
vn -0.244607 -0.292287 -0.924519
vn -0.244606 -0.292286 0.924520
vn -0.053049 -0.382031 -0.922626
vn -0.053049 -0.382030 0.922626
vn 0.154967 -0.351350 -0.923330
vn 0.154967 -0.351348 0.923331
vn 0.314671 -0.209386 -0.925818
vn 0.314670 -0.209386 0.925819
vn 0.374602 0.000000 -0.927186
vn 0.374601 0.000000 0.927186
vn 0.314671 0.209386 -0.925818
vn 0.314670 0.209386 0.925819
vn 0.154967 0.351349 -0.923330
vn 0.154967 0.351348 0.923331
vn -0.053049 0.382031 -0.922626
vn -0.053049 0.382030 0.922626
vn -0.244607 0.292287 -0.924519
vn -0.244606 0.292286 0.924520
vn -0.359284 0.109231 -0.926814
vn -0.359283 0.109230 0.926814
vn -0.781458 0.237582 0.576956
vn -0.923386 0.280730 0.261818
vn -0.923386 0.280731 0.261819
vn -0.956760 0.290877 -0.000000
vn -0.923385 0.280731 -0.261819
vn -0.923386 0.280730 -0.261818
vn -0.781458 0.237582 -0.576956
vn -0.527189 0.629952 0.570291
vn -0.620120 0.741000 0.257624
vn -0.620121 0.740999 0.257624
vn -0.641783 0.766886 -0.000000
vn -0.620121 0.740999 -0.257624
vn -0.620120 0.741000 -0.257625
vn -0.527189 0.629952 -0.570291
vn -0.113491 0.817300 0.564926
vn -0.113490 0.817300 0.564926
vn -0.133020 0.957937 0.254288
vn -0.137541 0.990496 0.000000
vn -0.133020 0.957937 -0.254288
vn -0.113490 0.817300 -0.564926
vn -0.113491 0.817300 -0.564926
vn 0.332442 0.753723 0.566908
vn 0.332439 0.753723 0.566909
vn 0.390159 0.884583 0.255516
vn 0.390160 0.884583 0.255516
vn 0.403555 0.914955 0.000000
vn 0.390160 0.884583 -0.255516
vn 0.390159 0.884583 -0.255517
vn 0.332439 0.753723 -0.566909
vn 0.332442 0.753723 -0.566908
vn 0.681696 0.453614 0.574043
vn 0.681699 0.453611 0.574041
vn 0.803903 0.534931 0.259977
vn 0.803903 0.534932 0.259977
vn 0.832530 0.553980 0.000000
vn 0.803903 0.534932 -0.259978
vn 0.803903 0.534931 -0.259977
vn 0.681699 0.453611 -0.574041
vn 0.681696 0.453613 -0.574043
vn 0.815998 0.000000 0.578055
vn 0.964928 0.000000 0.262514
vn 1.000000 0.000000 0.000000
vn 0.964928 0.000000 -0.262514
vn 0.815998 0.000000 -0.578055
vn 0.681696 -0.453613 0.574043
vn 0.681699 -0.453611 0.574041
vn 0.803903 -0.534931 0.259977
vn 0.803903 -0.534932 0.259977
vn 0.832530 -0.553980 0.000000
vn 0.803903 -0.534932 -0.259978
vn 0.803903 -0.534931 -0.259977
vn 0.681699 -0.453611 -0.574041
vn 0.681696 -0.453613 -0.574043
vn 0.332442 -0.753723 0.566908
vn 0.332439 -0.753723 0.566909
vn 0.390159 -0.884583 0.255517
vn 0.390160 -0.884583 0.255516
vn 0.403555 -0.914955 0.000000
vn 0.390160 -0.884583 -0.255516
vn 0.390159 -0.884583 -0.255517
vn 0.332439 -0.753723 -0.566909
vn 0.332442 -0.753723 -0.566908
vn -0.113491 -0.817300 0.564926
vn -0.113490 -0.817300 0.564926
vn -0.133020 -0.957937 0.254288
vn -0.137541 -0.990496 0.000000
vn -0.133020 -0.957937 -0.254288
vn -0.113490 -0.817300 -0.564926
vn -0.113491 -0.817300 -0.564926
vn -0.527189 -0.629952 0.570291
vn -0.620120 -0.741000 0.257624
vn -0.620121 -0.740999 0.257624
vn -0.641783 -0.766886 0.000000
vn -0.641784 -0.766886 0.000000
vn -0.620121 -0.740999 -0.257624
vn -0.620120 -0.741000 -0.257625
vn -0.527189 -0.629952 -0.570291
vn -0.781458 -0.237582 0.576956
vn -0.923386 -0.280730 0.261818
vn -0.923386 -0.280731 0.261819
vn -0.956760 -0.290877 0.000000
vn -0.923385 -0.280731 -0.261819
vn -0.923386 -0.280730 -0.261818
vn -0.781458 -0.237582 -0.576956
usemtl gunflame2
s off
f 1//1 2//1 3//1
f 13//2 12//2 14//2
f 15//3 1//3 3//3
f 12//4 20//4 14//4
f 21//5 15//5 3//5
f 20//6 26//6 14//6
f 27//7 21//7 3//7
f 26//8 32//8 14//8
f 33//9 27//9 3//9
f 32//10 38//10 14//10
f 39//11 33//11 3//11
f 38//12 44//12 14//12
f 45//13 39//13 3//13
f 44//14 50//14 14//14
f 51//15 45//15 3//15
f 50//16 56//16 14//16
f 57//17 51//17 3//17
f 56//18 62//18 14//18
f 63//19 57//19 3//19
f 62//20 68//20 14//20
f 2//21 63//21 3//21
f 68//22 13//22 14//22
f 67//23 11//23 13//23
f 67//23 13//23 68//23
f 66//24 9//24 11//24
f 66//25 11//25 67//25
f 65//26 7//26 9//26
f 65//26 9//26 66//26
f 64//27 5//27 65//27
f 5//28 7//28 65//28
f 63//29 2//29 64//29
f 2//29 5//29 64//29
f 61//30 67//30 68//30
f 61//30 68//30 62//30
f 60//31 66//31 67//31
f 60//32 67//32 61//32
f 59//33 65//33 66//33
f 59//33 66//33 60//33
f 58//34 64//34 59//34
f 64//35 65//35 59//35
f 57//36 63//36 58//36
f 63//36 64//36 58//36
f 55//37 61//37 62//37
f 55//38 62//38 56//38
f 54//39 60//39 61//39
f 54//39 61//39 55//39
f 53//40 59//40 60//40
f 53//40 60//40 54//40
f 52//41 58//41 53//41
f 58//41 59//41 53//41
f 51//42 57//42 52//42
f 57//43 58//43 52//43
f 49//44 55//44 50//44
f 55//45 56//45 50//45
f 48//46 54//46 49//46
f 54//47 55//47 49//47
f 47//48 53//48 54//48
f 47//48 54//48 48//48
f 46//49 52//49 53//49
f 46//50 53//50 47//50
f 45//51 51//51 52//51
f 45//52 52//52 46//52
f 43//53 49//53 44//53
f 49//54 50//54 44//54
f 42//55 48//55 43//55
f 48//56 49//56 43//56
f 41//57 47//57 48//57
f 41//57 48//57 42//57
f 40//58 46//58 47//58
f 40//59 47//59 41//59
f 39//60 45//60 46//60
f 39//61 46//61 40//61
f 37//62 43//62 44//62
f 37//62 44//62 38//62
f 36//63 42//63 43//63
f 36//63 43//63 37//63
f 35//64 41//64 42//64
f 35//64 42//64 36//64
f 34//65 40//65 41//65
f 34//65 41//65 35//65
f 33//66 39//66 40//66
f 33//66 40//66 34//66
f 31//67 37//67 38//67
f 31//68 38//68 32//68
f 30//69 36//69 37//69
f 30//70 37//70 31//70
f 29//71 35//71 36//71
f 29//71 36//71 30//71
f 28//72 34//72 29//72
f 34//73 35//73 29//73
f 27//74 33//74 28//74
f 33//75 34//75 28//75
f 25//76 31//76 32//76
f 25//77 32//77 26//77
f 24//78 30//78 31//78
f 24//79 31//79 25//79
f 23//80 29//80 30//80
f 23//80 30//80 24//80
f 22//81 28//81 23//81
f 28//82 29//82 23//82
f 21//83 27//83 22//83
f 27//84 28//84 22//84
f 19//85 25//85 20//85
f 25//86 26//86 20//86
f 18//87 24//87 19//87
f 24//87 25//87 19//87
f 17//88 23//88 24//88
f 17//88 24//88 18//88
f 16//89 22//89 23//89
f 16//89 23//89 17//89
f 15//90 21//90 22//90
f 15//91 22//91 16//91
f 10//92 19//92 12//92
f 19//92 20//92 12//92
f 8//93 18//93 10//93
f 18//94 19//94 10//94
f 6//95 17//95 18//95
f 6//96 18//96 8//96
f 4//97 16//97 17//97
f 4//98 17//98 6//98
f 1//99 15//99 16//99
f 1//99 16//99 4//99
f 11//100 10//100 13//100
f 10//100 12//100 13//100
f 9//101 8//101 11//101
f 8//102 10//102 11//102
f 7//103 6//103 8//103
f 7//103 8//103 9//103
f 5//104 4//104 6//104
f 5//105 6//105 7//105
f 2//106 1//106 4//106
f 2//106 4//106 5//106
