# Blender3D v249 OBJ File: GunTruck90.blend
# www.blender3d.org
mtllib ./GunTruck/GunFlame3.mtl
o GunFlame3
v -0.247487 -0.247486 15.692096
v -0.350000 0.000001 15.692096
v 0.000000 0.000001 15.692096
v -0.494975 -0.494974 15.692096
v -0.700000 0.000001 15.692096
v -0.494975 -0.494974 18.192097
v -0.700000 0.000001 18.192097
v -0.494975 -0.494974 20.692097
v -0.700000 0.000001 20.692097
v -0.247487 -0.247486 20.692097
v -0.350000 0.000001 20.692097
v 0.000000 0.000001 20.692097
v 0.000000 -0.349999 15.692096
v 0.000000 -0.699999 15.692096
v 0.000000 -0.699999 18.192097
v 0.000000 -0.699999 20.692097
v 0.000000 -0.349999 20.692097
v 0.247487 -0.247486 15.692096
v 0.494975 -0.494974 15.692096
v 0.494975 -0.494974 18.192097
v 0.494975 -0.494974 20.692097
v 0.247487 -0.247486 20.692097
v 0.350000 0.000001 15.692096
v 0.700000 0.000001 15.692096
v 0.700000 0.000001 18.192097
v 0.700000 0.000001 20.692097
v 0.350000 0.000001 20.692097
v 0.247487 0.247488 15.692096
v 0.494975 0.494976 15.692096
v 0.494975 0.494976 18.192097
v 0.494975 0.494976 20.692097
v 0.247487 0.247488 20.692097
v 0.000000 0.350001 15.692096
v 0.000000 0.700001 15.692096
v 0.000000 0.700001 18.192097
v 0.000000 0.700001 20.692097
v 0.000000 0.350001 20.692097
v -0.247487 0.247488 15.692096
v -0.494975 0.494976 15.692096
v -0.494975 0.494976 18.192097
v -0.494975 0.494976 20.692097
v -0.247487 0.247488 20.692097
vn 0.000000 0.000000 -1.000000
vn 0.000000 0.000000 1.000000
vn -0.923880 0.382683 -0.000000
vn -0.382683 0.923880 -0.000000
vn 0.382683 0.923880 -0.000000
vn 0.923880 0.382683 -0.000000
vn 0.923880 -0.382683 0.000000
vn 0.382683 -0.923880 0.000000
vn -0.382683 -0.923880 0.000000
vn -0.923880 -0.382683 0.000000
usemtl GunFlame3
s off
f 1//1 2//1 3//1
f 11//2 10//2 12//2
f 13//1 1//1 3//1
f 10//2 17//2 12//2
f 18//1 13//1 3//1
f 17//2 22//2 12//2
f 23//1 18//1 3//1
f 22//2 27//2 12//2
f 28//1 23//1 3//1
f 27//2 32//2 12//2
f 33//1 28//1 3//1
f 32//2 37//2 12//2
f 38//1 33//1 3//1
f 37//2 42//2 12//2
f 2//1 38//1 3//1
f 42//2 11//2 12//2
f 41//2 9//2 42//2
f 9//2 11//2 42//2
f 40//3 7//3 9//3
f 40//3 9//3 41//3
f 39//3 5//3 7//3
f 39//3 7//3 40//3
f 38//1 2//1 5//1
f 38//1 5//1 39//1
f 36//2 41//2 42//2
f 36//2 42//2 37//2
f 35//4 40//4 41//4
f 35//4 41//4 36//4
f 34//4 39//4 40//4
f 34//4 40//4 35//4
f 33//1 38//1 34//1
f 38//1 39//1 34//1
f 31//2 36//2 32//2
f 36//2 37//2 32//2
f 30//5 35//5 36//5
f 30//5 36//5 31//5
f 29//5 34//5 35//5
f 29//5 35//5 30//5
f 28//1 33//1 34//1
f 28//1 34//1 29//1
f 26//2 31//2 32//2
f 26//2 32//2 27//2
f 25//6 30//6 31//6
f 25//6 31//6 26//6
f 24//6 29//6 30//6
f 24//6 30//6 25//6
f 23//1 28//1 24//1
f 28//1 29//1 24//1
f 21//2 26//2 22//2
f 26//2 27//2 22//2
f 20//7 25//7 26//7
f 20//7 26//7 21//7
f 19//7 24//7 25//7
f 19//7 25//7 20//7
f 18//1 23//1 24//1
f 18//1 24//1 19//1
f 16//2 21//2 22//2
f 16//2 22//2 17//2
f 15//8 20//8 21//8
f 15//8 21//8 16//8
f 14//8 19//8 20//8
f 14//8 20//8 15//8
f 13//1 18//1 14//1
f 18//1 19//1 14//1
f 8//2 16//2 10//2
f 16//2 17//2 10//2
f 6//9 15//9 16//9
f 6//9 16//9 8//9
f 4//9 14//9 15//9
f 4//9 15//9 6//9
f 1//1 13//1 14//1
f 1//1 14//1 4//1
f 9//2 8//2 10//2
f 9//2 10//2 11//2
f 7//10 6//10 8//10
f 7//10 8//10 9//10
f 5//10 4//10 6//10
f 5//10 6//10 7//10
f 2//1 1//1 5//1
f 1//1 4//1 5//1
