# Blender3D v249 OBJ File: GunTruck90.blend
# www.blender3d.org
mtllib ./GunTruck/WheelFR_Tire.mtl
o WheelFR_Tire
v 3.392877 -0.007227 4.616250
v 3.392877 0.043885 5.004479
v 2.392877 0.043885 5.004479
v 2.392877 -0.007227 4.616250
v 3.392877 0.193735 5.366250
v 2.392877 0.193735 5.366250
v 3.392877 0.432113 5.676911
v 2.392877 0.432113 5.676911
v 3.392877 0.742773 5.915288
v 2.392877 0.742773 5.915288
v 3.392877 1.104545 6.065139
v 2.392877 1.104545 6.065139
v 3.392877 1.492773 6.116250
v 2.392877 1.492773 6.116250
v 3.392877 1.881002 6.065139
v 2.392877 1.881002 6.065139
v 3.392877 2.242773 5.915288
v 2.392877 2.242773 5.915288
v 3.392877 2.553433 5.676911
v 2.392877 2.553433 5.676911
v 3.392877 2.791811 5.366250
v 2.392877 2.791811 5.366250
v 3.392877 2.941662 5.004479
v 2.392877 2.941662 5.004479
v 3.392877 2.992773 4.616250
v 2.392877 2.992773 4.616250
v 3.392877 2.941662 4.228022
v 2.392877 2.941662 4.228022
v 3.392877 2.791811 3.866250
v 2.392877 2.791811 3.866250
v 3.392877 2.553433 3.555590
v 2.392877 2.553433 3.555590
v 3.392877 2.242773 3.317212
v 2.392877 2.242773 3.317212
v 3.392877 1.881002 3.167362
v 2.392877 1.881002 3.167362
v 3.392877 1.492773 3.116250
v 2.392877 1.492773 3.116250
v 3.392877 1.104545 3.167362
v 2.392877 1.104545 3.167362
v 3.392877 0.742773 3.317212
v 2.392877 0.742773 3.317212
v 3.392877 0.432113 3.555590
v 2.392877 0.432113 3.555590
v 3.392877 0.193735 3.866250
v 2.392877 0.193735 3.866250
v 3.392877 0.043885 4.228022
v 2.392877 0.043885 4.228022
v 3.523528 0.292773 4.616250
v 3.523528 0.333662 4.926833
v 3.523528 0.333662 4.305668
v 3.523528 0.453543 4.016250
v 3.523528 0.644245 3.767722
v 3.523528 0.892773 3.577020
v 3.523528 1.182190 3.457139
v 3.523528 1.492773 3.416250
v 3.523528 1.803356 3.457139
v 3.523528 2.092773 3.577020
v 3.523528 2.341301 3.767722
v 3.523528 2.532004 4.016250
v 3.523528 2.651884 4.305668
v 3.523528 2.692773 4.616250
v 3.523528 2.651884 4.926833
v 3.523528 2.532004 5.216250
v 3.523528 2.341301 5.464779
v 3.523528 2.092773 5.655481
v 3.523528 1.803356 5.775361
v 3.523528 1.492773 5.816250
v 3.523528 1.182190 5.775361
v 3.523528 0.892773 5.655481
v 3.523528 0.644245 5.464779
v 3.523528 0.453543 5.216250
v 2.262226 0.333662 4.926833
v 2.262226 0.292773 4.616250
v 2.262226 0.453543 5.216250
v 2.262226 0.644245 5.464779
v 2.262226 0.892773 5.655481
v 2.262226 1.182190 5.775361
v 2.262226 1.492773 5.816250
v 2.262226 1.803356 5.775361
v 2.262226 2.092773 5.655481
v 2.262226 2.341301 5.464779
v 2.262226 2.532004 5.216250
v 2.262226 2.651884 4.926833
v 2.262226 2.692773 4.616250
v 2.262226 2.651884 4.305668
v 2.262226 2.532004 4.016250
v 2.262226 2.341301 3.767722
v 2.262226 2.092773 3.577020
v 2.262226 1.803356 3.457139
v 2.262226 1.492773 3.416250
v 2.262226 1.182190 3.457139
v 2.262226 0.892773 3.577020
v 2.262226 0.644245 3.767722
v 2.262226 0.453543 4.016250
v 2.262226 0.333662 4.305668
v 3.455259 0.532773 4.616250
v 3.455259 0.565484 4.864717
v 3.455259 0.565484 4.367784
v 3.455259 0.661389 4.136250
v 3.455259 0.813951 3.937428
v 3.455259 1.012773 3.784866
v 3.455259 1.244307 3.688962
v 3.455259 1.492773 3.656250
v 3.455259 1.741240 3.688962
v 3.455259 1.972773 3.784866
v 3.455259 2.171596 3.937428
v 3.455259 2.324158 4.136250
v 3.455259 2.420062 4.367784
v 3.455259 2.452773 4.616250
v 3.455259 2.420062 4.864717
v 3.455259 2.324158 5.096250
v 3.455259 2.171596 5.295073
v 3.455259 1.972773 5.447635
v 3.455259 1.741240 5.543539
v 3.455259 1.492773 5.576250
v 3.455259 1.244307 5.543539
v 3.455259 1.012773 5.447635
v 3.455259 0.813951 5.295073
v 3.455259 0.661389 5.096250
v 2.330495 0.565484 4.864717
v 2.330495 0.532773 4.616250
v 2.330495 0.661389 5.096250
v 2.330495 0.813951 5.295073
v 2.330495 1.012773 5.447635
v 2.330495 1.244307 5.543539
v 2.330495 1.492773 5.576250
v 2.330495 1.741240 5.543539
v 2.330495 1.972773 5.447635
v 2.330495 2.171596 5.295073
v 2.330495 2.324158 5.096250
v 2.330495 2.420062 4.864717
v 2.330495 2.452773 4.616250
v 2.330495 2.420062 4.367784
v 2.330495 2.324158 4.136250
v 2.330495 2.171596 3.937428
v 2.330495 1.972773 3.784866
v 2.330495 1.741240 3.688962
v 2.330495 1.492773 3.656250
v 2.330495 1.244307 3.688962
v 2.330495 1.012773 3.784866
v 2.330495 0.813951 3.937428
v 2.330495 0.661389 4.136250
v 2.330495 0.565484 4.367784
vt 0.458677 0.718369
vt 0.500787 0.717661
vt 0.500878 0.693411
vt 0.458718 0.693978
vt 0.416541 0.718519
vt 0.416528 0.694098
vt 0.374413 0.718100
vt 0.374347 0.693763
vt 0.332327 0.717140
vt 0.332214 0.692995
vt 0.290314 0.715706
vt 0.290162 0.691847
vt 0.248398 0.713894
vt 0.248217 0.690398
vt 0.206595 0.711829
vt 0.206397 0.688746
vt 0.164911 0.709650
vt 0.164711 0.687003
vt 0.123344 0.707507
vt 0.123156 0.685289
vt 0.081887 0.705546
vt 0.081722 0.683720
vt 0.040522 0.703900
vt 0.040391 0.682403
vt -0.000771 0.702681
vt -0.000859 0.681427
vt 0.957983 0.701972
vt 0.999229 0.702681
vt 0.999141 0.681427
vt 0.957944 0.680861
vt 0.916758 0.701823
vt 0.916771 0.680741
vt 0.875527 0.702242
vt 0.875590 0.681076
vt 0.834262 0.703201
vt 0.834371 0.681844
vt 0.792938 0.704636
vt 0.793086 0.682992
vt 0.751531 0.706448
vt 0.751709 0.684441
vt 0.710023 0.708513
vt 0.710219 0.686093
vt 0.668402 0.710691
vt 0.668602 0.687836
vt 0.626661 0.712834
vt 0.626852 0.689550
vt 0.584802 0.714796
vt 0.584971 0.691119
vt 0.542837 0.716442
vt 0.542973 0.692436
vt 0.581887 0.294454
vt 0.540522 0.296100
vt 0.540392 0.317597
vt 0.581722 0.316280
vt 0.623344 0.292492
vt 0.623156 0.314711
vt 0.664911 0.290349
vt 0.664711 0.312997
vt 0.706595 0.288171
vt 0.706397 0.311254
vt 0.748398 0.286106
vt 0.748217 0.309602
vt 0.790314 0.284294
vt 0.790162 0.308152
vt 0.832327 0.282859
vt 0.832214 0.307005
vt 0.874412 0.281900
vt 0.874347 0.306237
vt 0.916541 0.281481
vt 0.916528 0.305902
vt 0.958677 0.281630
vt 0.958717 0.306021
vt 1.000787 0.282339
vt 1.000878 0.306588
vt 0.042837 0.283558
vt 0.000787 0.282339
vt 0.000878 0.306588
vt 0.042972 0.307563
vt 0.084802 0.285204
vt 0.084971 0.308880
vt 0.126660 0.287165
vt 0.126852 0.310449
vt 0.168402 0.289308
vt 0.168602 0.312164
vt 0.210023 0.291487
vt 0.210219 0.313906
vt 0.251531 0.293552
vt 0.251709 0.315559
vt 0.292938 0.295364
vt 0.293086 0.317008
vt 0.334262 0.296798
vt 0.334371 0.318156
vt 0.375527 0.297758
vt 0.375590 0.318923
vt 0.416758 0.298177
vt 0.416771 0.319259
vt 0.457983 0.298027
vt 0.457944 0.319139
vt 0.499229 0.297319
vt 0.499141 0.318572
vt 0.458548 0.676878
vt 0.500497 0.675992
vt 0.416581 0.677065
vt 0.374620 0.676541
vt 0.332686 0.675342
vt 0.290800 0.673549
vt 0.248976 0.671284
vt 0.207224 0.668702
vt 0.165548 0.665979
vt 0.123947 0.663301
vt 0.082415 0.660849
vt 0.040940 0.658791
vt -0.000491 0.657268
vt 0.958108 0.656382
vt 0.999509 0.657268
vt 0.916719 0.656195
vt 0.875327 0.656719
vt 0.833914 0.657918
vt 0.792464 0.659711
vt 0.750963 0.661976
vt 0.709399 0.664558
vt 0.667763 0.667281
vt 0.626051 0.669959
vt 0.584264 0.672411
vt 0.542408 0.674469
vt 0.582415 0.339151
vt 0.540940 0.341208
vt 0.623947 0.336699
vt 0.665548 0.334020
vt 0.707224 0.331297
vt 0.748976 0.328716
vt 0.790800 0.326451
vt 0.832686 0.324658
vt 0.874620 0.323458
vt 0.916581 0.322934
vt 0.958548 0.323122
vt 1.000497 0.324007
vt 0.042408 0.325531
vt 0.000497 0.324007
vt 0.084264 0.327588
vt 0.126051 0.330040
vt 0.167763 0.332719
vt 0.209398 0.335442
vt 0.250963 0.338024
vt 0.292464 0.340288
vt 0.333913 0.342081
vt 0.375327 0.343281
vt 0.416719 0.343805
vt 0.458108 0.343618
vt 0.499509 0.342732
vn -0.961220 0.273423 0.035997
vn -0.961220 0.254790 0.105538
vn -0.961220 0.218793 0.167886
vn -0.961220 0.218792 0.167886
vn -0.961220 0.167885 0.218793
vn -0.961220 0.167886 0.218793
vn -0.961220 0.105538 0.254790
vn -0.961220 0.105537 0.254789
vn -0.961220 0.035997 0.273423
vn -0.961220 0.035998 0.273422
vn -0.961220 -0.035997 0.273423
vn -0.961220 -0.035997 0.273422
vn -0.961220 -0.105538 0.254789
vn -0.961220 -0.105537 0.254790
vn -0.961220 -0.167885 0.218793
vn -0.961220 -0.218793 0.167886
vn -0.961220 -0.254790 0.105537
vn -0.961220 -0.273423 0.035997
vn -0.961220 -0.273423 -0.035997
vn -0.961220 -0.254790 -0.105537
vn -0.961220 -0.218793 -0.167886
vn -0.961220 -0.218793 -0.167885
vn -0.961220 -0.167886 -0.218793
vn -0.961220 -0.105537 -0.254790
vn -0.961220 -0.035997 -0.273423
vn -0.961220 0.035997 -0.273423
vn -0.961220 0.105537 -0.254790
vn -0.961220 0.167885 -0.218793
vn -0.961220 0.167886 -0.218793
vn -0.961220 0.218793 -0.167885
vn -0.961220 0.218793 -0.167886
vn -0.961220 0.254790 -0.105538
vn -0.961220 0.254789 -0.105538
vn -0.961220 0.273423 -0.035997
vn 0.961220 0.254790 -0.105538
vn 0.961220 0.254789 -0.105538
vn 0.961220 0.218793 -0.167885
vn 0.961220 0.218793 -0.167886
vn 0.961220 0.167885 -0.218793
vn 0.961220 0.167886 -0.218793
vn 0.961220 0.105537 -0.254790
vn 0.961220 0.035997 -0.273423
vn 0.961220 -0.035997 -0.273423
vn 0.961220 -0.105537 -0.254790
vn 0.961220 -0.167886 -0.218793
vn 0.961220 -0.218793 -0.167886
vn 0.961220 -0.218793 -0.167885
vn 0.961220 -0.254790 -0.105537
vn 0.961220 -0.273423 -0.035997
vn 0.961220 -0.273423 0.035997
vn 0.961220 -0.254790 0.105537
vn 0.961220 -0.218793 0.167886
vn 0.961220 -0.167885 0.218793
vn 0.961220 -0.105538 0.254789
vn 0.961220 -0.105537 0.254790
vn 0.961220 -0.035997 0.273423
vn 0.961220 -0.035997 0.273422
vn 0.961220 0.035997 0.273423
vn 0.961220 0.035998 0.273422
vn 0.961220 0.105538 0.254790
vn 0.961220 0.105537 0.254789
vn 0.961220 0.167886 0.218793
vn 0.961220 0.167886 0.218792
vn 0.961220 0.218793 0.167885
vn 0.961220 0.218793 0.167886
vn 0.961220 0.254790 0.105538
vn 0.961220 0.273423 0.035997
vn 0.961220 0.273423 -0.035997
vn -0.915564 -0.398731 -0.052495
vn -0.915564 -0.398732 -0.052494
vn -0.915564 -0.371558 -0.153904
vn -0.915564 -0.371559 -0.153905
vn -0.915564 -0.319064 -0.244827
vn -0.915564 -0.319065 -0.244826
vn -0.915564 -0.244827 -0.319064
vn -0.915564 -0.244826 -0.319064
vn -0.915564 -0.153904 -0.371560
vn -0.915564 -0.153905 -0.371558
vn -0.915564 -0.052495 -0.398731
vn -0.915564 -0.052494 -0.398732
vn -0.915564 0.052495 -0.398731
vn -0.915564 0.052494 -0.398732
vn -0.915564 0.153904 -0.371558
vn -0.915564 0.153905 -0.371559
vn -0.915564 0.244827 -0.319064
vn -0.915564 0.244827 -0.319065
vn -0.915564 0.319064 -0.244827
vn -0.915564 0.319064 -0.244828
vn -0.915564 0.371559 -0.153905
vn -0.915564 0.371558 -0.153903
vn -0.915564 0.398731 -0.052494
vn -0.915564 0.398731 0.052494
vn -0.915564 0.371559 0.153905
vn -0.915564 0.371558 0.153904
vn -0.915564 0.319065 0.244827
vn -0.915564 0.244826 0.319065
vn -0.915564 0.244827 0.319065
vn -0.915564 0.153905 0.371559
vn -0.915564 0.153904 0.371558
vn -0.915564 0.052494 0.398731
vn -0.915564 -0.052494 0.398731
vn -0.915564 -0.153905 0.371559
vn -0.915564 -0.153904 0.371559
vn -0.915564 -0.244826 0.319065
vn -0.915564 -0.244827 0.319065
vn -0.915564 -0.319065 0.244826
vn -0.915564 -0.371558 0.153904
vn -0.915564 -0.371559 0.153906
vn -0.915564 -0.398731 0.052495
vn -0.915564 -0.398732 0.052494
vn 0.915564 -0.371558 0.153904
vn 0.915564 -0.371559 0.153906
vn 0.915564 -0.319065 0.244826
vn 0.915564 -0.244826 0.319065
vn 0.915564 -0.244827 0.319065
vn 0.915564 -0.153905 0.371559
vn 0.915564 -0.153904 0.371559
vn 0.915564 -0.052494 0.398731
vn 0.915564 0.052494 0.398731
vn 0.915564 0.153905 0.371559
vn 0.915564 0.153904 0.371558
vn 0.915564 0.244826 0.319065
vn 0.915564 0.244827 0.319065
vn 0.915564 0.319065 0.244827
vn 0.915564 0.371559 0.153905
vn 0.915564 0.371558 0.153904
vn 0.915564 0.398731 0.052494
vn 0.915564 0.398731 -0.052494
vn 0.915564 0.371559 -0.153905
vn 0.915564 0.371558 -0.153903
vn 0.915564 0.319065 -0.244827
vn 0.915564 0.319064 -0.244827
vn 0.915564 0.244827 -0.319064
vn 0.915564 0.244826 -0.319064
vn 0.915564 0.153904 -0.371558
vn 0.915564 0.153905 -0.371559
vn 0.915564 0.052495 -0.398731
vn 0.915564 0.052494 -0.398732
vn 0.915564 -0.052495 -0.398731
vn 0.915564 -0.052494 -0.398732
vn 0.915564 -0.153904 -0.371560
vn 0.915564 -0.153905 -0.371558
vn 0.915564 -0.244827 -0.319064
vn 0.915564 -0.244827 -0.319065
vn 0.915564 -0.319064 -0.244827
vn 0.915564 -0.319064 -0.244826
vn 0.915564 -0.371558 -0.153904
vn 0.915564 -0.371559 -0.153905
vn 0.915564 -0.398731 -0.052495
vn 0.915564 -0.398732 -0.052494
vn 0.915564 -0.398731 0.052495
vn 0.915564 -0.398732 0.052494
vn 0.000000 -0.991445 -0.130528
vn 0.000000 -0.923880 -0.382681
vn 0.000000 -0.793353 -0.608762
vn 0.000000 -0.608761 -0.793353
vn 0.000000 -0.382682 -0.923880
vn 0.000000 -0.130528 -0.991445
vn 0.000000 0.130528 -0.991445
vn 0.000000 0.382683 -0.923880
vn 0.000000 0.608762 -0.793353
vn 0.000000 0.793353 -0.608762
vn 0.000000 0.923880 -0.382684
vn 0.000000 0.991445 -0.130526
vn 0.000000 0.991445 0.130525
vn 0.000000 0.923879 0.382685
vn 0.000000 0.793354 0.608761
vn 0.000000 0.608760 0.793354
vn 0.000000 0.382684 0.923879
vn 0.000000 0.130526 0.991445
vn 0.000000 -0.130526 0.991445
vn 0.000000 -0.382683 0.923880
vn 0.000000 -0.608760 0.793354
vn 0.000000 -0.793354 0.608761
vn 0.000000 -0.923880 0.382682
vn 0.000000 -0.991445 0.130528
usemtl WheelFR_Tire_Tire.tga
s off
f 96/1/1 74/2/1 122/3/1
f 96/1/1 122/3/1 144/4/1
f 95/5/2 96/1/2 144/4/2
f 95/5/2 144/4/2 143/6/2
f 94/7/3 95/5/3 143/6/3
f 94/7/4 143/6/4 142/8/4
f 93/9/5 94/7/5 142/8/5
f 93/9/6 142/8/6 141/10/6
f 92/11/7 93/9/7 141/10/7
f 92/11/8 141/10/8 140/12/8
f 91/13/9 92/11/9 139/14/9
f 92/11/10 140/12/10 139/14/10
f 90/15/11 91/13/11 139/14/11
f 90/15/12 139/14/12 138/16/12
f 89/17/13 90/15/13 138/16/13
f 89/17/14 138/16/14 137/18/14
f 88/19/15 89/17/15 137/18/15
f 88/19/15 137/18/15 136/20/15
f 87/21/16 88/19/16 136/20/16
f 87/21/16 136/20/16 135/22/16
f 86/23/17 87/21/17 135/22/17
f 86/23/17 135/22/17 134/24/17
f 85/25/18 86/23/18 133/26/18
f 86/23/18 134/24/18 133/26/18
f 84/27/19 85/28/19 133/29/19
f 84/27/19 133/29/19 132/30/19
f 83/31/20 84/27/20 132/30/20
f 83/31/20 132/30/20 131/32/20
f 82/33/21 83/31/21 130/34/21
f 83/31/22 131/32/22 130/34/22
f 81/35/23 82/33/23 129/36/23
f 82/33/23 130/34/23 129/36/23
f 80/37/24 81/35/24 129/36/24
f 80/37/24 129/36/24 128/38/24
f 79/39/25 80/37/25 128/38/25
f 79/39/25 128/38/25 127/40/25
f 78/41/26 79/39/26 126/42/26
f 79/39/26 127/40/26 126/42/26
f 77/43/27 78/41/27 125/44/27
f 78/41/27 126/42/27 125/44/27
f 76/45/28 77/43/28 124/46/28
f 77/43/29 125/44/29 124/46/29
f 75/47/30 76/45/30 124/46/30
f 75/47/31 124/46/31 123/48/31
f 73/49/32 75/47/32 121/50/32
f 75/47/33 123/48/33 121/50/33
f 74/2/34 73/49/34 121/50/34
f 74/2/34 121/50/34 122/3/34
f 72/51/35 50/52/35 98/53/35
f 72/51/36 98/53/36 120/54/36
f 71/55/37 72/51/37 119/56/37
f 72/51/38 120/54/38 119/56/38
f 70/57/39 71/55/39 119/56/39
f 70/57/40 119/56/40 118/58/40
f 69/59/41 70/57/41 118/58/41
f 69/59/41 118/58/41 117/60/41
f 68/61/42 69/59/42 117/60/42
f 68/61/42 117/60/42 116/62/42
f 67/63/43 68/61/43 116/62/43
f 67/63/43 116/62/43 115/64/43
f 66/65/44 67/63/44 115/64/44
f 66/65/44 115/64/44 114/66/44
f 65/67/45 66/65/45 114/66/45
f 65/67/45 114/66/45 113/68/45
f 64/69/46 65/67/46 113/68/46
f 64/69/47 113/68/47 112/70/47
f 63/71/48 64/69/48 112/70/48
f 63/71/48 112/70/48 111/72/48
f 62/73/49 63/71/49 110/74/49
f 63/71/49 111/72/49 110/74/49
f 61/75/50 62/76/50 110/77/50
f 61/75/50 110/77/50 109/78/50
f 60/79/51 61/75/51 108/80/51
f 61/75/51 109/78/51 108/80/51
f 59/81/52 60/79/52 108/80/52
f 59/81/52 108/80/52 107/82/52
f 58/83/53 59/81/53 106/84/53
f 59/81/53 107/82/53 106/84/53
f 57/85/54 58/83/54 105/86/54
f 58/83/55 106/84/55 105/86/55
f 56/87/56 57/85/56 104/88/56
f 57/85/57 105/86/57 104/88/57
f 55/89/58 56/87/58 104/88/58
f 55/89/59 104/88/59 103/90/59
f 54/91/60 55/89/60 102/92/60
f 55/89/61 103/90/61 102/92/61
f 53/93/62 54/91/62 102/92/62
f 53/93/63 102/92/63 101/94/63
f 52/95/64 53/93/64 101/94/64
f 52/95/65 101/94/65 100/96/65
f 51/97/66 52/95/66 99/98/66
f 52/95/66 100/96/66 99/98/66
f 49/99/67 51/97/67 97/100/67
f 51/97/67 99/98/67 97/100/67
f 50/52/68 49/99/68 97/100/68
f 50/52/68 97/100/68 98/53/68
f 48/101/69 4/102/69 74/2/69
f 48/101/70 74/2/70 96/1/70
f 46/103/71 48/101/71 95/5/71
f 48/101/72 96/1/72 95/5/72
f 44/104/73 46/103/73 95/5/73
f 44/104/74 95/5/74 94/7/74
f 42/105/75 44/104/75 94/7/75
f 42/105/76 94/7/76 93/9/76
f 40/106/77 42/105/77 92/11/77
f 42/105/78 93/9/78 92/11/78
f 38/107/79 40/106/79 91/13/79
f 40/106/80 92/11/80 91/13/80
f 36/108/81 38/107/81 91/13/81
f 36/108/82 91/13/82 90/15/82
f 34/109/83 36/108/83 89/17/83
f 36/108/84 90/15/84 89/17/84
f 32/110/85 34/109/85 89/17/85
f 32/110/86 89/17/86 88/19/86
f 30/111/87 32/110/87 88/19/87
f 30/111/88 88/19/88 87/21/88
f 28/112/89 30/111/89 87/21/89
f 28/112/90 87/21/90 86/23/90
f 26/113/91 28/112/91 86/23/91
f 26/113/91 86/23/91 85/25/91
f 24/114/92 26/115/92 84/27/92
f 26/115/92 85/28/92 84/27/92
f 22/116/93 24/114/93 83/31/93
f 24/114/94 84/27/94 83/31/94
f 20/117/95 22/116/95 82/33/95
f 22/116/95 83/31/95 82/33/95
f 18/118/96 20/117/96 82/33/96
f 18/118/97 82/33/97 81/35/97
f 16/119/98 18/118/98 81/35/98
f 16/119/99 81/35/99 80/37/99
f 14/120/100 16/119/100 80/37/100
f 14/120/100 80/37/100 79/39/100
f 12/121/101 14/120/101 79/39/101
f 12/121/101 79/39/101 78/41/101
f 10/122/102 12/121/102 78/41/102
f 10/122/103 78/41/103 77/43/103
f 8/123/104 10/122/104 76/45/104
f 10/122/105 77/43/105 76/45/105
f 6/124/106 8/123/106 76/45/106
f 6/124/106 76/45/106 75/47/106
f 3/125/107 6/124/107 75/47/107
f 3/125/108 75/47/108 73/49/108
f 4/102/109 3/125/109 74/2/109
f 3/125/110 73/49/110 74/2/110
f 5/126/111 2/127/111 72/51/111
f 2/127/112 50/52/112 72/51/112
f 7/128/113 5/126/113 71/55/113
f 5/126/113 72/51/113 71/55/113
f 9/129/114 7/128/114 71/55/114
f 9/129/115 71/55/115 70/57/115
f 11/130/116 9/129/116 69/59/116
f 9/129/117 70/57/117 69/59/117
f 13/131/118 11/130/118 68/61/118
f 11/130/118 69/59/118 68/61/118
f 15/132/119 13/131/119 67/63/119
f 13/131/119 68/61/119 67/63/119
f 17/133/120 15/132/120 66/65/120
f 15/132/121 67/63/121 66/65/121
f 19/134/122 17/133/122 65/67/122
f 17/133/123 66/65/123 65/67/123
f 21/135/124 19/134/124 65/67/124
f 21/135/124 65/67/124 64/69/124
f 23/136/125 21/135/125 64/69/125
f 23/136/126 64/69/126 63/71/126
f 25/137/127 23/136/127 63/71/127
f 25/137/127 63/71/127 62/73/127
f 27/138/128 25/139/128 62/76/128
f 27/138/128 62/76/128 61/75/128
f 29/140/129 27/138/129 60/79/129
f 27/138/130 61/75/130 60/79/130
f 31/141/131 29/140/131 60/79/131
f 31/141/132 60/79/132 59/81/132
f 33/142/133 31/141/133 59/81/133
f 33/142/134 59/81/134 58/83/134
f 35/143/135 33/142/135 58/83/135
f 35/143/136 58/83/136 57/85/136
f 37/144/137 35/143/137 56/87/137
f 35/143/138 57/85/138 56/87/138
f 39/145/139 37/144/139 56/87/139
f 39/145/140 56/87/140 55/89/140
f 41/146/141 39/145/141 55/89/141
f 41/146/142 55/89/142 54/91/142
f 43/147/143 41/146/143 54/91/143
f 43/147/144 54/91/144 53/93/144
f 45/148/145 43/147/145 53/93/145
f 45/148/146 53/93/146 52/95/146
f 47/149/147 45/148/147 52/95/147
f 47/149/148 52/95/148 51/97/148
f 1/150/149 47/149/149 49/99/149
f 47/149/150 51/97/150 49/99/150
f 2/127/151 1/150/151 49/99/151
f 2/127/152 49/99/152 50/52/152
f 47/149/153 1/150/153 4/102/153
f 47/149/153 4/102/153 48/101/153
f 45/148/154 47/149/154 48/101/154
f 45/148/154 48/101/154 46/103/154
f 43/147/155 45/148/155 46/103/155
f 43/147/155 46/103/155 44/104/155
f 41/146/156 43/147/156 44/104/156
f 41/146/156 44/104/156 42/105/156
f 39/145/157 41/146/157 42/105/157
f 39/145/157 42/105/157 40/106/157
f 37/144/158 39/145/158 40/106/158
f 37/144/158 40/106/158 38/107/158
f 35/143/159 37/144/159 38/107/159
f 35/143/159 38/107/159 36/108/159
f 33/142/160 35/143/160 36/108/160
f 33/142/160 36/108/160 34/109/160
f 31/141/161 33/142/161 34/109/161
f 31/141/161 34/109/161 32/110/161
f 29/140/162 31/141/162 32/110/162
f 29/140/162 32/110/162 30/111/162
f 27/138/163 29/140/163 30/111/163
f 27/138/163 30/111/163 28/112/163
f 25/139/164 27/138/164 28/112/164
f 25/139/164 28/112/164 26/113/164
f 23/136/165 25/137/165 26/115/165
f 23/136/165 26/115/165 24/114/165
f 21/135/166 23/136/166 24/114/166
f 21/135/166 24/114/166 22/116/166
f 19/134/167 21/135/167 22/116/167
f 19/134/167 22/116/167 20/117/167
f 17/133/168 19/134/168 20/117/168
f 17/133/168 20/117/168 18/118/168
f 15/132/169 17/133/169 18/118/169
f 15/132/169 18/118/169 16/119/169
f 13/131/170 15/132/170 16/119/170
f 13/131/170 16/119/170 14/120/170
f 11/130/171 13/131/171 14/120/171
f 11/130/171 14/120/171 12/121/171
f 9/129/172 11/130/172 12/121/172
f 9/129/172 12/121/172 10/122/172
f 7/128/173 9/129/173 10/122/173
f 7/128/173 10/122/173 8/123/173
f 5/126/174 7/128/174 8/123/174
f 5/126/174 8/123/174 6/124/174
f 2/127/175 5/126/175 6/124/175
f 2/127/175 6/124/175 3/125/175
f 1/150/176 2/127/176 3/125/176
f 1/150/176 3/125/176 4/102/176
