# 3ds Max Wavefront OBJ Exporter v0.94b - (c)2007 guruware
# File Created: 13.10.2011 21:42:45

mtllib boxmetal.mtl

#
# object crate
#

v  0.5000 -0.5000 -0.1000
v  0.5000 0.5000 -0.1000
v  -0.5000 0.5000 -0.1000
v  -0.5000 -0.5000 -0.1000
v  -0.5000 -0.5000 -1.1000
v  -0.5000 0.5000 -1.1000
v  0.5000 0.5000 -1.1000
v  0.5000 -0.5000 -1.1000
# 8 vertices

vn 0.5774 -0.5774 0.5774
vn 0.5774 0.5774 0.5774
vn -0.5774 0.5774 0.5774
vn -0.5774 -0.5774 0.5774
vn -0.5774 -0.5774 -0.5774
vn -0.5774 0.5774 -0.5774
vn 0.5774 0.5774 -0.5774
vn 0.5774 -0.5774 -0.5774
# 8 vertex normals

vt 1.0000 0.0000 0.0000
vt 1.0000 1.0000 0.0000
vt 0.0000 1.0000 0.0000
vt 0.0000 0.0000 0.0000
# 4 texture coords

g crate
usemtl crate_mat
s 1
f 1/1/1 2/2/2 3/3/3 
f 1/1/1 3/3/3 4/4/4 
f 5/1/5 6/2/6 7/3/7 
f 5/1/5 7/3/7 8/4/8 
f 4/1/4 3/2/3 6/3/6 
f 4/1/4 6/3/6 5/4/5 
f 8/1/8 7/2/7 2/3/2 
f 8/1/8 2/3/2 1/4/1 
f 2/1/2 7/2/7 6/3/6 
f 2/1/2 6/3/6 3/4/3 
f 8/1/8 1/2/1 4/3/4 
f 8/1/8 4/3/4 5/4/5 
# 12 faces

#
# object crate1
#

v  0.5000 0.5000 -0.1000
v  -0.5000 0.5000 -0.1000
v  -0.5000 -0.5000 -0.1000
v  0.5000 -0.5000 -0.1000
v  -0.5000 0.5000 -1.1000
v  0.5000 0.5000 -1.1000
v  0.5000 -0.5000 -1.1000
v  -0.5000 -0.5000 -1.1000
# 8 vertices

vn 0.0000 0.0000 1.0000
vn 0.0000 0.0000 -1.0000
vn -1.0000 0.0000 -0.0000
vn 1.0000 0.0000 -0.0000
vn 0.0000 1.0000 -0.0000
vn 0.0000 -1.0000 -0.0000
# 6 vertex normals

vt 1.0000 1.0000 0.0000
vt 0.0000 1.0000 0.0000
vt 0.0000 0.0000 0.0000
vt 1.0000 0.0000 0.0000
# 4 texture coords

g crate1
usemtl crate_mat
s off
f 9/5/9 10/6/9 11/7/9 
f 11/7/9 12/8/9 9/5/9 
f 13/5/10 14/6/10 15/7/10 
f 15/7/10 16/8/10 13/5/10 
f 10/5/11 13/6/11 16/7/11 
f 16/7/11 11/8/11 10/5/11 
f 14/5/12 9/6/12 12/7/12 
f 12/7/12 15/8/12 14/5/12 
f 14/5/13 13/6/13 10/7/13 
f 10/7/13 9/8/13 14/5/13 
f 12/5/14 11/6/14 16/7/14 
f 16/7/14 15/8/14 12/5/14 
# 12 faces

